<svg width="108" height="60" viewBox="0 0 108 60" fill="none" xmlns="http://www.w3.org/2000/svg">
<g clip-path="url(#clip0_380_3964)">
<rect width="107.208" height="59.5074" transform="translate(0.39624)" fill="none" fill-opacity="0.01"/>
<rect width="97.2076" height="59.5074" transform="translate(5.39624)" fill="none" fill-opacity="0.01"/>
<path opacity="0.8" fill-rule="evenodd" clip-rule="evenodd" d="M24.9139 11.1486C25.9135 8.00458 26.8438 6.04708 27.7032 5.27533C30.0831 3.13933 33.3736 4.30183 34.0732 4.46833C36.5307 5.05483 35.7316 1.19533 37.8401 0.410829C39.2453 -0.111921 40.4009 0.527079 41.3078 2.32783C42.1107 0.647829 43.3342 -0.121671 44.9783 0.0155795C47.4449 0.223329 48.308 8.51158 51.6973 6.69733C55.0874 4.88233 59.2433 4.46758 61.0186 7.16458C61.4023 7.74808 61.5493 6.84283 64.1592 3.75208C66.769 0.660579 69.3713 -0.701421 74.71 1.09858C77.1374 1.91608 79.1336 4.13233 80.7008 7.74658C80.7008 12.9051 84.5153 15.9591 92.1427 16.9063C103.585 18.3276 94.7035 30.5668 80.7008 34.1511C66.6974 37.7361 34.4576 39.6711 16.9624 30.6141C5.29885 24.5773 7.94937 18.0883 24.9132 11.1486H24.9139Z" fill="url(#paint0_linear_380_3964)"/>
<path d="M53.6055 56.7336C65.2575 56.7336 74.7034 54.5584 74.7034 51.8751C74.7034 49.1918 65.2575 47.0166 53.6055 47.0166C41.9534 47.0166 32.5076 49.1918 32.5076 51.8751C32.5076 54.5584 41.9534 56.7336 53.6055 56.7336Z" fill="url(#paint1_linear_380_3964)"/>
<path opacity="0.675" fill-rule="evenodd" clip-rule="evenodd" d="M89.2246 57.9373C73.3614 61.8958 19.2149 57.3681 13.4518 55.3003C10.6467 54.2931 8.11831 52.3993 5.86732 49.6183C5.61539 49.3074 5.45703 48.9318 5.41055 48.5351C5.36407 48.1384 5.43136 47.7367 5.60466 47.3764C5.77795 47.0162 6.05017 46.712 6.38985 46.4992C6.72954 46.2863 7.12283 46.1734 7.52427 46.1736H102.143C104.106 51.3771 99.8003 55.2981 89.2246 57.9373Z" fill="url(#paint2_linear_380_3964)"/>
<path d="M69.795 38.8543L62.5799 30.4603C62.4093 30.2601 62.1972 30.0988 61.9582 29.9875C61.7193 29.8762 61.459 29.8175 61.1951 29.8153H45.6809C45.1487 29.8153 44.6429 30.0583 44.2961 30.4603L37.0811 38.8543V43.4623H69.795V38.8543Z" fill="url(#paint3_linear_380_3964)"/>
<path d="M67.7505 43.6318L61.4356 36.3208C61.2829 36.1482 61.0947 36.0103 60.8837 35.9165C60.6727 35.8227 60.4439 35.7751 60.2128 35.7771H46.6632C46.1981 35.7771 45.7435 35.9691 45.4405 36.3208L39.1255 43.6318V47.6473H67.7505V43.6318Z" fill="url(#paint4_linear_380_3964)"/>
<path d="M69.795 48.7431C69.795 49.3828 69.5055 49.9581 69.0486 50.3436L68.9559 50.4186C68.5937 50.6917 68.1515 50.8393 67.697 50.8386H39.1798C38.9219 50.8386 38.6754 50.7921 38.4478 50.7066L38.3347 50.6616C37.9616 50.4965 37.6447 50.2273 37.4222 49.8867C37.1997 49.546 37.0812 49.1486 37.0811 48.7423V38.9046H45.0183C45.895 38.9046 46.6014 39.6223 46.6014 40.4931V40.5043C46.6014 41.3758 47.316 42.0786 48.1927 42.0786H58.6833C59.1047 42.0782 59.5088 41.9117 59.807 41.6155C60.1053 41.3193 60.2734 40.9176 60.2746 40.4983C60.2746 39.6238 60.9817 38.9046 61.8577 38.9046H69.7957L69.795 48.7431Z" fill="url(#paint5_linear_380_3964)"/>
</g>
<defs>
<linearGradient id="paint0_linear_380_3964" x1="55.6639" y1="27.7125" x2="55.6639" y2="-6.55011" gradientUnits="userSpaceOnUse">
<stop stop-color="#DEDEDE" stop-opacity="0"/>
<stop offset="1" stop-color="#A9A9A9" stop-opacity="0.3"/>
</linearGradient>
<linearGradient id="paint1_linear_380_3964" x1="51.4071" y1="56.7336" x2="51.4071" y2="47.0166" gradientUnits="userSpaceOnUse">
<stop stop-color="white" stop-opacity="0"/>
<stop offset="1" stop-color="#96A1C5" stop-opacity="0.373"/>
</linearGradient>
<linearGradient id="paint2_linear_380_3964" x1="54" y1="59.5074" x2="54" y2="43.5501" gradientUnits="userSpaceOnUse">
<stop stop-color="white" stop-opacity="0"/>
<stop offset="1" stop-color="#919191" stop-opacity="0.15"/>
</linearGradient>
<linearGradient id="paint3_linear_380_3964" x1="53.438" y1="29.8153" x2="53.438" y2="35.9497" gradientUnits="userSpaceOnUse">
<stop stop-color="#6281DB"/>
<stop offset="1" stop-color="#2D4383"/>
</linearGradient>
<linearGradient id="paint4_linear_380_3964" x1="57.258" y1="47.6473" x2="57.258" y2="35.146" gradientUnits="userSpaceOnUse">
<stop stop-color="#D9E3FF"/>
<stop offset="1" stop-color="#B1C5FF"/>
</linearGradient>
<linearGradient id="paint5_linear_380_3964" x1="53.4384" y1="38.9046" x2="53.4384" y2="50.8386" gradientUnits="userSpaceOnUse">
<stop stop-color="#3A56A9"/>
<stop offset="1" stop-color="#B1C5FF"/>
</linearGradient>
<clipPath id="clip0_380_3964">
<rect width="107.208" height="59.5074" fill="white" transform="translate(0.39624)"/>
</clipPath>
</defs>
</svg>
